<?xml version="1.0" encoding="utf-8"?>
<!-- Generator: Adobe Illustrator 22.0.1, SVG Export Plug-In . SVG Version: 6.00 Build 0)  -->
<svg version="1.1" id="图层_1" xmlns="http://www.w3.org/2000/svg" xmlns:xlink="http://www.w3.org/1999/xlink" x="0px" y="0px"
	 viewBox="0 0 200 200" style="enable-background:new 0 0 200 200;" xml:space="preserve">
<style type="text/css">
	.st0{fill:#FFFFFF;}
</style>
<path class="st0" d="M183.3,155.9h-102c-1.1,0-2-0.9-2-2v-10c0-1.1,0.9-2,2-2h102c1.1,0,2,0.9,2,2v10
	C185.3,155,184.4,155.9,183.3,155.9z"/>
<g>
	<path class="st0" d="M22.4,147.9l-7.1-7.1c-0.8-0.8-0.8-2,0-2.8l40.3-40.3c0.8-0.8,0.8-2,0-2.8L15.3,54.6c-0.8-0.8-0.8-2,0-2.8
		l7.1-7.1c0.8-0.8,2-0.8,2.8,0l50.2,50.2c0.8,0.8,0.8,2,0,2.8l-50.2,50.2C24.4,148.7,23.2,148.7,22.4,147.9z"/>
</g>
</svg>
