<?xml version="1.0" encoding="utf-8"?>
<!-- Generator: Adobe Illustrator 22.0.0, SVG Export Plug-In . SVG Version: 6.00 Build 0)  -->
<svg version="1.1" id="图层_1" xmlns="http://www.w3.org/2000/svg" xmlns:xlink="http://www.w3.org/1999/xlink" x="0px" y="0px"
	 viewBox="0 0 200 200" enable-background="new 0 0 200 200" xml:space="preserve">
<g>
	<path fill="#FFFFFF" d="M100,18.8c-44.9,0-81.2,36.4-81.2,81.2c0,44.9,36.4,81.2,81.2,81.2c44.9,0,81.2-36.4,81.2-81.2
		C181.2,55.1,144.9,18.8,100,18.8z M148.6,148.6c-12.5,12.5-29.6,20.1-48.6,20.1c-19,0-36.2-7.7-48.6-20.1
		C38.9,136.2,31.3,119,31.3,100c0-19,7.7-36.2,20.1-48.6C63.8,38.9,81,31.3,100,31.2c19,0,36.2,7.7,48.6,20.1
		c12.5,12.5,20.1,29.6,20.1,48.6C168.7,119,161.1,136.2,148.6,148.6z"/>
	<path fill="#FFFFFF" d="M133.1,70.6l-45.3,45.3L67.2,92.1c-2.3-2.6-6.2-2.9-8.8-0.6c-2.6,2.3-2.9,6.2-0.6,8.8l24.9,28.8
		c1.1,1.3,2.8,2.1,4.5,2.2c1.7,0.1,3.4-0.6,4.6-1.8l50.1-50c2.4-2.4,2.4-6.4,0-8.8C139.5,68.1,135.5,68.1,133.1,70.6z"/>
</g>
</svg>
