<?xml version="1.0" encoding="utf-8"?>
<!-- Generator: Adobe Illustrator 22.0.0, SVG Export Plug-In . SVG Version: 6.00 Build 0)  -->
<svg version="1.1" id="图层_1" xmlns="http://www.w3.org/2000/svg" xmlns:xlink="http://www.w3.org/1999/xlink" x="0px" y="0px"
	 viewBox="0 0 200 200" enable-background="new 0 0 200 200" xml:space="preserve">
<path fill="#333333" d="M175,102.6h-30.4V25c0-1.6-0.7-3.3-1.8-4.4c-1.2-1.2-2.8-1.8-4.4-1.8H61.6c-1.6,0-3.3,0.7-4.4,1.8
	c-1.2,1.2-1.8,2.8-1.8,4.4v77.6H25c-2.6,0-4.9,1.6-5.8,4c-0.9,2.4-0.2,5.2,1.7,6.9l75,66.2c2.4,2.1,5.9,2.1,8.3,0l75-66.2
	c2-1.7,2.6-4.5,1.7-6.9C179.9,104.2,177.6,102.6,175,102.6z M100,166.7l-58.5-51.6h20.1c1.6,0,3.3-0.7,4.4-1.8
	c1.2-1.2,1.8-2.8,1.8-4.4V31.2h64.2v77.6c0,1.6,0.7,3.3,1.8,4.4c1.2,1.2,2.8,1.8,4.4,1.8h20.1L100,166.7z"/>
</svg>
