<?xml version="1.0" encoding="utf-8"?>
<!-- Generator: Adobe Illustrator 22.0.0, SVG Export Plug-In . SVG Version: 6.00 Build 0)  -->
<svg version="1.1" id="图层_1" xmlns="http://www.w3.org/2000/svg" xmlns:xlink="http://www.w3.org/1999/xlink" x="0px" y="0px"
	 viewBox="0 0 200 200" style="enable-background:new 0 0 200 200;" xml:space="preserve">
<style type="text/css">
	.st0{fill:#333333;}
</style>
<path class="st0" d="M143.3,95.3c14.3-8.8,21.8-22.3,25.6-34.2c3.9-12,4.3-22.7,4.3-27.4c0-1.5,0-2.4-0.1-2.5c0-0.3-0.2-0.6-0.2-0.9
	c-0.1-0.5-0.2-0.9-0.3-1.3c-0.2-0.4-0.4-0.8-0.7-1.1c-0.2-0.4-0.5-0.7-0.8-1c-0.3-0.3-0.7-0.5-1-0.8c-0.4-0.2-0.7-0.5-1.1-0.7
	c-0.4-0.2-0.9-0.3-1.3-0.3c-0.3-0.1-0.6-0.2-0.9-0.2v0c-0.1,0-1-0.1-2.5-0.1c-6.2,0-23.2,0.7-39.6,9.5c-8.2,4.4-16.1,10.9-22,20.5
	c-0.9,1.5-1.7,3.3-2.6,4.9c-0.8-1.7-1.6-3.4-2.6-4.9C88.8,40.4,75.3,32.9,63.4,29c-12-3.9-22.7-4.3-27.4-4.3c-1.5,0-2.4,0-2.5,0.1
	c-0.3,0-0.6,0.2-0.9,0.2c-0.5,0.1-0.9,0.2-1.3,0.3c-0.4,0.2-0.8,0.4-1.1,0.7c-0.4,0.2-0.7,0.5-1,0.8c-0.3,0.3-0.5,0.7-0.8,1
	c-0.2,0.4-0.5,0.7-0.7,1.1c-0.2,0.4-0.3,0.9-0.3,1.3c-0.1,0.3-0.2,0.6-0.2,0.9c0,0.1-0.1,1-0.1,2.5c0,6.2,0.7,23.2,9.5,39.6
	c4.4,8.2,10.9,16.1,20.5,22c9.3,5.8,21.3,9.3,36.3,9.4v56.4H45.5c-3.8,0-6.8,3.1-6.8,6.8s3.1,6.8,6.8,6.8h109.1
	c3.8,0,6.8-3.1,6.8-6.8s-3.1-6.8-6.8-6.8h-47.7v-56.4C121.9,104.6,134,101.1,143.3,95.3z M114.3,61.8c6.6-10.7,16.8-16.6,26.8-19.8
	c7-2.3,13.6-3.1,18.3-3.4c-0.5,6.9-2.2,18.2-7.7,28.2c-3.5,6.5-8.5,12.5-15.6,16.9c-7,4.3-16.3,7.2-29.1,7.4c0-0.3,0-0.5,0-0.8
	C107.2,77.9,110.1,68.7,114.3,61.8z M44.3,56.9c-2.3-7-3.1-13.6-3.4-18.3c6.9,0.5,18.2,2.2,28.2,7.7c6.5,3.5,12.5,8.5,16.9,15.6
	c4.2,6.9,7.1,16,7.3,28.5c0,0.3,0,0.5,0,0.8c-12.8-0.1-22.1-3.1-29.1-7.4C53.4,77.1,47.6,66.9,44.3,56.9z"/>
</svg>
