<?xml version="1.0" encoding="utf-8"?>
<!-- Generator: Adobe Illustrator 22.0.0, SVG Export Plug-In . SVG Version: 6.00 Build 0)  -->
<svg version="1.1" id="图层_1" xmlns="http://www.w3.org/2000/svg" xmlns:xlink="http://www.w3.org/1999/xlink" x="0px" y="0px"
	 viewBox="0 0 200 200" style="enable-background:new 0 0 200 200;" xml:space="preserve">
<style type="text/css">
	.st0{fill:#333333;}
</style>
<path class="st0" d="M106.6,28.8V22c0-3.6-2.9-6.5-6.5-6.5s-6.5,2.9-6.5,6.5v6.8c-36.2,3.3-64.6,33.7-64.6,70.7
	c0,1.7,0.7,3.4,1.9,4.6c1.2,1.2,2.9,1.9,4.6,1.9h58.2v58.2c0,3.6-2.9,6.5-6.5,6.5c-3.6,0-6.5-2.9-6.5-6.5c0-3.6-2.9-6.5-6.5-6.5
	c-3.6,0-6.5,2.9-6.5,6.5c0,10.7,8.7,19.4,19.4,19.4c10.7,0,19.4-8.7,19.4-19.4V106h58.2c1.7,0,3.4-0.7,4.6-1.9
	c1.2-1.2,1.9-2.9,1.9-4.6C171.2,62.5,142.9,32.1,106.6,28.8z M59,58.4c10.5-10.5,25-17,41.1-17c16.1,0,30.6,6.5,41.1,17
	c9.1,9.1,14.9,21.2,16.4,34.7h-115C44.2,79.7,50,67.5,59,58.4z"/>
</svg>
