<?xml version="1.0" encoding="utf-8"?>
<!-- Generator: Adobe Illustrator 22.0.0, SVG Export Plug-In . SVG Version: 6.00 Build 0)  -->
<svg version="1.1" id="图层_1" xmlns="http://www.w3.org/2000/svg" xmlns:xlink="http://www.w3.org/1999/xlink" x="0px" y="0px"
	 viewBox="0 0 200 200" enable-background="new 0 0 200 200" xml:space="preserve">
<path fill="#333333" d="M156.2,98.4h-12.5V70.3c0-24.2-19.6-43.7-43.8-43.8c-24.2,0-43.7,19.6-43.8,43.8v28.1H43.8
	c-1.6,0-3.3,0.7-4.4,1.8c-1.2,1.2-1.8,2.8-1.8,4.4v62.5c0,1.6,0.7,3.3,1.8,4.4c1.2,1.2,2.8,1.8,4.4,1.8h112.5c1.6,0,3.3-0.7,4.4-1.8
	c1.2-1.2,1.8-2.8,1.8-4.4v-62.5c0-1.6-0.7-3.3-1.8-4.4C159.5,99.1,157.9,98.4,156.2,98.4z M68.8,70.3c0-17.3,14-31.2,31.2-31.2
	c17.3,0,31.2,14,31.2,31.2v28.1H68.8V70.3z M50,110.9h100v50H50V110.9z"/>
</svg>
