<?xml version="1.0" encoding="utf-8"?>
<!-- Generator: Adobe Illustrator 22.0.0, SVG Export Plug-In . SVG Version: 6.00 Build 0)  -->
<svg version="1.1" id="图层_1" xmlns="http://www.w3.org/2000/svg" xmlns:xlink="http://www.w3.org/1999/xlink" x="0px" y="0px"
	 viewBox="0 0 200 200" enable-background="new 0 0 200 200" xml:space="preserve">
<path fill="#333333" d="M181.1,36.5c0-0.1,0-0.3,0-0.4c-0.2-0.8-0.5-1.7-1.1-2.4c-0.1-0.1-0.3-0.2-0.4-0.3c-0.1-0.1-0.1-0.2-0.1-0.3
	c-0.1-0.1-0.3-0.1-0.4-0.3c-0.7-0.6-1.4-1-2.2-1.3c-0.2-0.1-0.4-0.2-0.6-0.2c-1-0.2-2-0.2-3.1,0.2c-0.1,0-0.2,0-0.2,0L23,84
	c-2.3,0.8-3.9,2.9-4.2,5.3s1,4.8,3.1,6l42.6,25L76,164.1c0.6,2.3,2.4,4,4.7,4.5c2.3,0.5,4.7-0.3,6.2-2.2l18.1-22.3l23,13.5
	c1.6,0.9,3.5,1.1,5.2,0.5c1.7-0.6,3.1-2,3.8-3.7l43.8-114.7c0.1-0.1,0-0.3,0-0.4C181.2,38.4,181.3,37.5,181.1,36.5z M39.9,91.3
	l99-34.6l-69.4,52L39.9,91.3z M85,149l-5.2-19.7l14.4,8.4L85,149z M128,143.1l-46.9-27.5l80.4-60.1L128,143.1z"/>
</svg>
