<?xml version="1.0" encoding="utf-8"?>
<!-- Generator: Adobe Illustrator 22.0.0, SVG Export Plug-In . SVG Version: 6.00 Build 0)  -->
<svg version="1.1" id="图层_1" xmlns="http://www.w3.org/2000/svg" xmlns:xlink="http://www.w3.org/1999/xlink" x="0px" y="0px"
	 viewBox="0 0 200 200" style="enable-background:new 0 0 200 200;" xml:space="preserve">
<style type="text/css">
	.st0{fill:#333333;}
</style>
<g>
	<path class="st0" d="M114.9,167.3c-4.9,1.1-9.9,1.8-14.9,1.8c-17.7,0-35.3-6.7-48.8-20.2S31,117.8,31,100.1
		c0-14.1,4.3-28.1,12.8-40c2.2-3.1,1.5-7.4-1.6-9.6c-3.1-2.2-7.4-1.5-9.6,1.6l0,0C22.2,66.3,17.1,83.2,17.1,100
		c0,21.2,8.1,42.4,24.3,58.6s37.4,24.3,58.6,24.3c7,0,14-1.1,20.9-2.9l4.2,9l19-27l-32.9-2.9L114.9,167.3z"/>
	<path class="st0" d="M182.9,100c0-21.2-8.1-42.4-24.3-58.6S121.2,17.1,100,17.1c-7,0-14,1.1-20.9,2.9L75,11L56,38.1L88.9,41
		l-3.8-8.3c4.9-1.1,9.9-1.8,14.9-1.8c17.7,0,35.3,6.7,48.8,20.2S169,82.2,169,99.9c0,14.1-4.3,28.1-12.8,40
		c-2.2,3.1-1.5,7.4,1.6,9.6c3.1,2.2,7.4,1.5,9.6-1.6l0,0C177.8,133.7,182.9,116.8,182.9,100z"/>
	<path class="st0" d="M80.7,97.2c-5.6,0-11.4,2.2-15.7,6.5s-6.5,10-6.5,15.7c0,5.6,2.2,11.4,6.5,15.7s10,6.5,15.7,6.5
		c5.6,0,11.4-2.2,15.7-6.5c4.3-4.3,6.5-10,6.5-15.7c0-3.4-0.9-6.8-2.5-9.9l39.1-39.1c2.7-2.7,2.7-7.1,0-9.8s-7.1-2.7-9.8,0l-5.9,5.9
		l-5.9-5.9c-2.7-2.7-7.1-2.7-9.8,0c-2.7,2.7-2.7,7.1,0,9.8l5.9,5.9L90.6,99.6C87.5,98.1,84.1,97.2,80.7,97.2z M86.6,125.2
		c-1.6,1.6-3.7,2.4-5.9,2.4c-2.2,0-4.2-0.8-5.9-2.4c-1.6-1.6-2.4-3.7-2.4-5.9c0-2.2,0.8-4.2,2.4-5.9c1.6-1.6,3.7-2.4,5.9-2.4
		c2.2,0,4.2,0.8,5.9,2.4c1.6,1.6,2.4,3.7,2.4,5.9S88.2,123.6,86.6,125.2z"/>
</g>
</svg>
