<?xml version="1.0" encoding="utf-8"?>
<!-- Generator: Adobe Illustrator 22.0.0, SVG Export Plug-In . SVG Version: 6.00 Build 0)  -->
<svg version="1.1" id="图层_1" xmlns="http://www.w3.org/2000/svg" xmlns:xlink="http://www.w3.org/1999/xlink" x="0px" y="0px"
	 viewBox="0 0 200 200" style="enable-background:new 0 0 200 200;" xml:space="preserve">
<style type="text/css">
	.st0{fill:#B3B3B3;}
	.st1{fill:#FFCC01;}
	.st2{fill:#4BD963;}
</style>
<g>
	<path class="st0" d="M118.4,64.2c-4.7-4.5-11.3-7.3-18.4-7.3c-7.1,0-13.7,2.8-18.4,7.3C76.8,68.7,73.8,75,73.8,82v41.1
		c0,1.2,0.5,2.4,1.4,3.3c0.9,0.9,2,1.4,3.3,1.4h43.1c1.2,0,2.4-0.5,3.3-1.4c0.9-0.9,1.4-2,1.4-3.3V82
		C126.2,75,123.2,68.7,118.4,64.2z M116.9,118.5H83.1V82c0-4.3,1.8-8.3,4.9-11.2c3.1-2.9,7.3-4.7,12-4.7c4.8,0,9,1.8,12,4.7
		c3.1,2.9,4.9,6.8,4.9,11.2V118.5z"/>
	<path class="st1" d="M130.8,138.5H69.2c-3.4,0-6.2-2.8-6.2-6.2v-30.8c0-3.4,2.8-6.2,6.2-6.2h61.5c3.4,0,6.2,2.8,6.2,6.2v30.8
		C136.9,135.7,134.2,138.5,130.8,138.5z"/>
	<path class="st2" d="M142.8,160.2l-29.4-2.2l3.6,7.5c-5.6,1.4-11.3,2.2-17,2.2c-17.3,0-34.6-6.6-47.9-19.8
		c-13.2-13.2-19.8-30.5-19.8-47.9c0-13.8,4.2-27.6,12.5-39.3l-10-7.1h0C24.9,67.5,20,83.8,20,100c0,20.5,7.8,41,23.4,56.6
		c15.6,15.6,36.1,23.4,56.6,23.4c7.6,0,15.1-1.1,22.5-3.3l3.8,7.8L142.8,160.2z"/>
	<g>
		<path class="st2" d="M156.6,43.4C141,27.8,120.5,19.9,100,19.9c-7.6,0-15.1,1.1-22.5,3.3l-3.8-7.8L57.2,39.8l29.4,2.2L83,34.4
			c5.6-1.4,11.3-2.2,17-2.2c17.3,0,34.6,6.6,47.9,19.8c13.2,13.2,19.8,30.5,19.8,47.9c0,13.8-4.2,27.6-12.5,39.3l10,7.1
			c9.9-13.9,14.8-30.1,14.8-46.4C180,79.5,172.2,59,156.6,43.4z"/>
		<polygon class="st2" points="165.2,146.4 165.2,146.4 165.2,146.4 		"/>
	</g>
</g>
</svg>
