<?xml version="1.0" encoding="utf-8"?>
<!-- Generator: Adobe Illustrator 22.1.0, SVG Export Plug-In . SVG Version: 6.00 Build 0)  -->
<svg version="1.1" id="图层_1" xmlns="http://www.w3.org/2000/svg" xmlns:xlink="http://www.w3.org/1999/xlink" x="0px" y="0px"
	 viewBox="0 0 200 200" style="enable-background:new 0 0 200 200;" xml:space="preserve">
<style type="text/css">
	.st0{fill:#F7C521;}
	.st1{fill:#C8C8CB;}
</style>
<g>
	<path class="st0" d="M161.7,190H38.3c-6.2,0-11.3-5.1-11.3-11.3v-59.6c0-6.2,5.1-11.3,11.3-11.3h123.4c6.2,0,11.3,5.1,11.3,11.3
		v59.6C173,184.9,167.9,190,161.7,190z"/>
	<path class="st1" d="M63.5,107.8V62.9c0-20.1,16.4-36.5,36.5-36.5s36.5,16.4,36.5,36.5v44.9h16.4V62.9c0-29.2-23.7-52.9-52.9-52.9
		h0c-29.2,0-52.9,23.7-52.9,52.9v44.9H63.5z"/>
</g>
</svg>
