<?xml version="1.0" encoding="utf-8"?>
<!-- Generator: Adobe Illustrator 22.0.0, SVG Export Plug-In . SVG Version: 6.00 Build 0)  -->
<svg version="1.1" id="图层_1" xmlns="http://www.w3.org/2000/svg" xmlns:xlink="http://www.w3.org/1999/xlink" x="0px" y="0px"
	 viewBox="0 0 200 200" enable-background="new 0 0 200 200" xml:space="preserve">
<g>
	<path fill="#FF9502" d="M142.1,159.3l-27.1-1.7l3.4,6.9c-6,1.7-12.2,2.6-18.4,2.6c-17.2,0-34.3-6.5-47.4-19.6
		C39.5,134.3,33,117.2,33,100c0-13.6,4.1-27.3,12.4-38.9l-9.3-6.6l0,0C26.4,68.1,21.6,84.1,21.6,100c0,20,7.7,40.1,23,55.4
		c15.3,15.3,35.4,23,55.4,23c7.9,0,15.9-1.2,23.6-3.6l3.5,7.1L142.1,159.3z"/>
	<g>
		<path fill="#FF9502" d="M155.5,44.5c-15.3-15.3-35.4-23-55.4-23c-8,0-15.9,1.2-23.6,3.6l-3.5-7.1L57.9,40.7L85,42.5l-3.4-6.9
			c6-1.7,12.2-2.6,18.4-2.6c17.2,0,34.3,6.5,47.4,19.6C160.5,65.7,167,82.8,167,100c0,13.6-4.1,27.3-12.4,38.9l9.3,6.6
			c9.7-13.6,14.5-29.5,14.5-45.5C178.4,79.9,170.7,59.8,155.5,44.5z"/>
		<polygon fill="#FF9502" points="163.9,145.4 163.9,145.4 163.9,145.4 		"/>
	</g>
	<rect x="68.4" y="94.3" fill="#35BA45" width="79.3" height="42.1"/>
	<rect x="60.4" y="79" fill="#3EC652" width="79.3" height="42.1"/>
	<rect x="52.3" y="63.6" fill="#4BD963" width="79.3" height="42.1"/>
</g>
</svg>
