<?xml version="1.0" encoding="utf-8"?>
<!-- Generator: Adobe Illustrator 22.0.0, SVG Export Plug-In . SVG Version: 6.00 Build 0)  -->
<svg version="1.1" id="图层_1" xmlns="http://www.w3.org/2000/svg" xmlns:xlink="http://www.w3.org/1999/xlink" x="0px" y="0px"
	 viewBox="0 0 200 200" enable-background="new 0 0 200 200" xml:space="preserve">
<path fill="#CCCCCC" d="M162.5,70.1h-32.6V37.5c0-1.6-0.7-3.3-1.8-4.4c-1.2-1.2-2.8-1.8-4.4-1.8H37.5c-1.6,0-3.3,0.7-4.4,1.8
	c-1.2,1.2-1.8,2.8-1.8,4.4v86.2c0,1.6,0.7,3.3,1.8,4.4c1.2,1.2,2.8,1.8,4.4,1.8h32.6v32.6c0,1.6,0.7,3.3,1.8,4.4
	c1.2,1.2,2.8,1.8,4.4,1.8h86.1c1.6,0,3.3-0.7,4.4-1.8c1.2-1.2,1.8-2.8,1.8-4.4V76.3c0-1.6-0.7-3.3-1.8-4.4
	C165.8,70.8,164.1,70.1,162.5,70.1z M43.8,117.4V43.8h73.7v26.3h-41c-1.6,0-3.3,0.7-4.4,1.8c-1.2,1.2-1.8,2.8-1.8,4.4v41.1H43.8z
	 M82.6,82.6h73.6v73.7H82.6V82.6z"/>
</svg>
