<?xml version="1.0" encoding="utf-8"?>
<!-- Generator: Adobe Illustrator 22.0.0, SVG Export Plug-In . SVG Version: 6.00 Build 0)  -->
<svg version="1.1" id="图层_1" xmlns="http://www.w3.org/2000/svg" xmlns:xlink="http://www.w3.org/1999/xlink" x="0px" y="0px"
	 viewBox="0 0 200 200" enable-background="new 0 0 200 200" xml:space="preserve">
<path fill="#333333" d="M162.5,54.9H89.2V50c0-1.6-0.7-3.3-1.8-4.4c-1.2-1.2-2.8-1.8-4.4-1.8H37.5c-1.6,0-3.3,0.7-4.4,1.8
	c-1.2,1.2-1.8,2.8-1.8,4.4v11.1v77.8V150c0,1.6,0.7,3.3,1.8,4.4c1.2,1.2,2.8,1.8,4.4,1.8h125c1.6,0,3.3-0.7,4.4-1.8
	c1.2-1.2,1.8-2.8,1.8-4.4V61.1c0-1.6-0.7-3.3-1.8-4.4C165.8,55.5,164.1,54.9,162.5,54.9z M156.2,143.8H43.8v-4.9V61.1v-4.9h33v4.9
	c0,1.6,0.7,3.3,1.8,4.4c1.2,1.2,2.8,1.8,4.4,1.8h73.3V143.8z"/>
</svg>
