<?xml version="1.0" encoding="utf-8"?>
<!-- Generator: Adobe Illustrator 22.0.0, SVG Export Plug-In . SVG Version: 6.00 Build 0)  -->
<svg version="1.1" id="图层_1" xmlns="http://www.w3.org/2000/svg" xmlns:xlink="http://www.w3.org/1999/xlink" x="0px" y="0px"
	 viewBox="0 0 200 200" enable-background="new 0 0 200 200" xml:space="preserve">
<g>
	<path fill="#333333" d="M80.3,31.7c-2.4-0.9-5.1-0.3-6.9,1.6L45.4,63.9c-2.3,2.5-2.2,6.5,0.4,8.8c2.5,2.3,6.5,2.2,8.8-0.4
		l17.2-18.8v108.9c0,3.5,2.8,6.2,6.2,6.2s6.2-2.8,6.2-6.2v-125C84.3,34.9,82.8,32.6,80.3,31.7z"/>
	<path fill="#333333" d="M145.4,127.7l-17.2,18.8V37.5c0-3.5-2.8-6.2-6.2-6.2s-6.2,2.8-6.2,6.2v125c0,2.6,1.6,4.9,4,5.8
		c2.4,0.9,5.1,0.3,6.9-1.6l28.1-30.6c2.3-2.5,2.2-6.5-0.4-8.8C151.7,124.9,147.7,125.1,145.4,127.7z"/>
</g>
</svg>
