<?xml version="1.0" encoding="utf-8"?>
<!-- Generator: Adobe Illustrator 22.0.0, SVG Export Plug-In . SVG Version: 6.00 Build 0)  -->
<svg version="1.1" id="图层_1" xmlns="http://www.w3.org/2000/svg" xmlns:xlink="http://www.w3.org/1999/xlink" x="0px" y="0px"
	 viewBox="0 0 200 200" enable-background="new 0 0 200 200" xml:space="preserve">
<path fill="#333333" d="M150,56.2h-12.5h-75H50c-3.5,0-6.2,2.8-6.2,6.2c0,3.5,2.8,6.2,6.2,6.2h6.2v93.8c0,1.6,0.7,3.3,1.8,4.4
	c1.2,1.2,2.8,1.8,4.4,1.8h75c1.6,0,3.3-0.7,4.4-1.8c1.2-1.2,1.8-2.8,1.8-4.4V68.8h6.2c3.5,0,6.2-2.8,6.2-6.2
	C156.2,59,153.5,56.2,150,56.2z M131.2,156.2H68.8V68.8h62.5V156.2z"/>
<path fill="#333333" d="M75,43.8h50c3.5,0,6.2-2.8,6.2-6.2c0-3.5-2.8-6.2-6.2-6.2H75c-3.5,0-6.2,2.8-6.2,6.2
	C68.8,41,71.5,43.8,75,43.8z"/>
</svg>
