<?xml version="1.0" encoding="utf-8"?>
<!-- Generator: Adobe Illustrator 22.0.0, SVG Export Plug-In . SVG Version: 6.00 Build 0)  -->
<svg version="1.1" id="图层_1" xmlns="http://www.w3.org/2000/svg" xmlns:xlink="http://www.w3.org/1999/xlink" x="0px" y="0px"
	 viewBox="0 0 200 200" enable-background="new 0 0 200 200" xml:space="preserve">
<g>
	<path fill="#333333" d="M95.7,142c0.3,0.3,0.6,0.4,0.9,0.6c0.3,0.2,0.6,0.5,1,0.6c0.7,0.3,1.5,0.4,2.2,0.5c0,0,0.1,0,0.1,0
		s0.1,0,0.1,0c0.8,0,1.5-0.2,2.2-0.5c0.4-0.2,0.7-0.4,1-0.7c0.3-0.2,0.6-0.3,0.9-0.6l37.5-35.5c2.5-2.4,2.6-6.3,0.2-8.8
		c-2.4-2.5-6.3-2.6-8.8-0.2l-27,25.5V37.5c0-3.5-2.8-6.2-6.2-6.2s-6.2,2.8-6.2,6.2V123l-27-25.5c-2.5-2.4-6.5-2.3-8.8,0.2
		c-2.4,2.5-2.3,6.5,0.2,8.8L95.7,142z"/>
	<path fill="#333333" d="M150,156.2H50c-3.5,0-6.2,2.8-6.2,6.2c0,3.5,2.8,6.2,6.2,6.2h100c3.5,0,6.2-2.8,6.2-6.2
		C156.2,159,153.5,156.2,150,156.2z"/>
</g>
</svg>
