<?xml version="1.0" encoding="utf-8"?>
<!-- Generator: Adobe Illustrator 22.0.0, SVG Export Plug-In . SVG Version: 6.00 Build 0)  -->
<svg version="1.1" id="图层_1" xmlns="http://www.w3.org/2000/svg" xmlns:xlink="http://www.w3.org/1999/xlink" x="0px" y="0px"
	 viewBox="0 0 200 200" enable-background="new 0 0 200 200" xml:space="preserve">
<path fill="#333333" d="M127.7,118.9c5.5-7.3,8.8-16.3,8.8-26.1c0-24.2-19.6-43.7-43.8-43.8C68.6,49,49,68.6,49,92.8
	c0,24.2,19.6,43.7,43.8,43.8c9.8,0,18.8-3.4,26.1-8.8l21.4,21.4c2.4,2.4,6.4,2.4,8.8,0c2.4-2.4,2.4-6.4,0-8.8L127.7,118.9z
	 M61.5,92.8c0-17.3,14-31.2,31.3-31.2c17.3,0,31.2,14,31.2,31.2c0,17.3-14,31.2-31.2,31.2C75.5,124,61.6,110,61.5,92.8z"/>
</svg>
