<?xml version="1.0" encoding="utf-8"?>
<!-- Generator: Adobe Illustrator 22.0.0, SVG Export Plug-In . SVG Version: 6.00 Build 0)  -->
<svg version="1.1" id="图层_1" xmlns="http://www.w3.org/2000/svg" xmlns:xlink="http://www.w3.org/1999/xlink" x="0px" y="0px"
	 viewBox="0 0 200 200" enable-background="new 0 0 200 200" xml:space="preserve">
<path fill="#808080" d="M149.6,71.1c-0.6,0-1.1,0.2-1.6,0.2c-6.2-19.6-24.4-33.8-46-33.8c-16.5,0-30.9,8.3-39.7,20.8
	c-1.7-0.2-3.4-0.4-5.2-0.4c-21.1,0-38.3,17.1-38.3,38.3c0,21,17,38.1,37.9,38.2c1.6,0,3.3-0.6,4.5-1.8l0,0c1.8-1.8,2.3-4.5,1.4-6.8
	s-3.2-3.9-5.7-3.9c-14.1-0.1-25.6-11.6-25.6-25.8C31.3,82,42.8,70.5,57,70.4c2.2,0,4.4,0.3,6.6,0.9c2.7,0.7,5.6-0.5,7-3
	c6.2-11,17.9-18.3,31.3-18.3c17.6,0,32.2,12.6,35.3,29.3c0.3,1.7,1.3,3.2,2.8,4.1c1.4,0.9,3.2,1.2,4.9,0.8c1.6-0.4,3.1-0.6,4.7-0.6
	c10.6,0,19.2,8.6,19.2,19.2c0,10.6-8.6,19.2-19.2,19.2c-3.5,0-6.2,2.8-6.2,6.2c0,3.5,2.8,6.2,6.2,6.2c17.5,0,31.7-14.2,31.7-31.7
	C181.2,85.3,167.1,71.1,149.6,71.1z"/>
<path fill="#808080" d="M104.4,76.8c-0.6-0.6-1.3-1-2-1.3c-0.8-0.3-1.6-0.5-2.4-0.5s-1.6,0.2-2.4,0.5c-0.7,0.3-1.4,0.8-2,1.3
	c0,0,0,0-0.1,0l-25,25c-2.4,2.4-2.4,6.4,0,8.8c2.4,2.4,6.4,2.4,8.8,0l14.3-14.3v59.9c0,3.5,2.8,6.2,6.2,6.2s6.2-2.8,6.2-6.2V96.3
	l14.3,14.3c2.4,2.4,6.4,2.4,8.8,0c2.4-2.4,2.4-6.4,0-8.8L104.4,76.8z"/>
</svg>
