<?xml version="1.0" encoding="utf-8"?>
<!-- Generator: Adobe Illustrator 22.0.0, SVG Export Plug-In . SVG Version: 6.00 Build 0)  -->
<svg version="1.1" id="图层_1" xmlns="http://www.w3.org/2000/svg" xmlns:xlink="http://www.w3.org/1999/xlink" x="0px" y="0px"
	 viewBox="0 0 200 200" style="enable-background:new 0 0 200 200;" xml:space="preserve">
<style type="text/css">
	.st0{fill:#FF9500;}
</style>
<path class="st0" d="M172,100c-4.4,0-8,3.6-8,8h0c0,17.7-7.2,33.7-18.8,45.3C133.7,164.8,117.7,172,100,172
	c-17.7,0-33.7-7.2-45.3-18.8C43.1,141.6,36,125.7,36,108c0-17.7,7.2-33.7,18.8-45.3c10-10,23.4-16.4,38.3-18v15.2l41.5-23.9L93,12
	v16.6C52.1,32.3,20,66.2,20,108c0,44.2,35.8,80,80,80c44.2,0,80-35.8,80-80C180,103.6,176.4,100,172,100z"/>
</svg>
