<?xml version="1.0" encoding="utf-8"?>
<!-- Generator: Adobe Illustrator 22.0.0, SVG Export Plug-In . SVG Version: 6.00 Build 0)  -->
<svg version="1.1" id="图层_1" xmlns="http://www.w3.org/2000/svg" xmlns:xlink="http://www.w3.org/1999/xlink" x="0px" y="0px"
	 viewBox="0 0 174 122.6" enable-background="new 0 0 174 122.6" xml:space="preserve">
<g>
	<linearGradient id="SVGID_1_" gradientUnits="userSpaceOnUse" x1="-2.7611" y1="113.1439" x2="176.761" y2="9.4968">
		<stop  offset="0" style="stop-color:#0061CC"/>
		<stop  offset="0.5" style="stop-color:#FF58DC"/>
		<stop  offset="1" style="stop-color:#FFE754"/>
	</linearGradient>
	<rect x="1.9" y="1.4" fill="url(#SVGID_1_)" width="170.1" height="119.9"/>
	<path fill="#FFFFFF" d="M0,0v122.6h174V0H0z M28.5,72.1c0,4.7-3.8,8.5-8.5,8.5c-4.7,0-8.5-3.8-8.5-8.5V60.5c0-4.7,3.8-8.5,8.5-8.5
		c4.7,0,8.5,3.8,8.5,8.5V72.1z M55.3,91.1c0,4.7-3.8,8.5-8.5,8.5c-4.7,0-8.5-3.8-8.5-8.5V39.3c0-4.7,3.8-8.5,8.5-8.5
		c4.7,0,8.5,3.8,8.5,8.5V91.1z M82.1,104.2c0,4.7-3.8,8.5-8.5,8.5c-4.7,0-8.5-3.8-8.5-8.5v-7.8c0-4.7,3.8-8.5,8.5-8.5
		c4.7,0,8.5,3.8,8.5,8.5V104.2z M82.1,70.2c0,4.7-3.8,8.5-8.5,8.5c-4.7,0-8.5-3.8-8.5-8.5V18.4c0-4.7,3.8-8.5,8.5-8.5
		c4.7,0,8.5,3.8,8.5,8.5V70.2z M108.9,91.1c0,4.7-3.8,8.5-8.5,8.5c-4.7,0-8.5-3.8-8.5-8.5V39.3c0-4.7,3.8-8.5,8.5-8.5
		c4.7,0,8.5,3.8,8.5,8.5V91.1z M135.6,102.3c0,4.7-3.8,8.5-8.5,8.5c-4.7,0-8.5-3.8-8.5-8.5V30.6c0-4.7,3.8-8.5,8.5-8.5
		c4.7,0,8.5,3.8,8.5,8.5V102.3z M162.4,79.1c0,4.7-3.8,8.5-8.5,8.5c-4.7,0-8.5-3.8-8.5-8.5V55.8c0-4.7,3.8-8.5,8.5-8.5
		c4.7,0,8.5,3.8,8.5,8.5V79.1z"/>
</g>
</svg>
